Coordinates
version=1
nRows=33
nColumns=24
inDegrees=yes

Units are S.I. units (second, meters, Newtons, ...)
If the header above contains a line with 'inDegrees', this indicates whether rotational values are in degrees (yes) or radians (no).

endheader
time	pelvis_tilt	pelvis_list	pelvis_rotation	pelvis_tx	pelvis_ty	pelvis_tz	hip_flexion_r	hip_adduction_r	hip_rotation_r	knee_angle_r	ankle_angle_r	subtalar_angle_r	mtp_angle_r	hip_flexion_l	hip_adduction_l	hip_rotation_l	knee_angle_l	ankle_angle_l	subtalar_angle_l	mtp_angle_l	lumbar_extension	lumbar_bending	lumbar_rotation
5.450000	8.316607	2.458436	-180.782891	0.272108	0.583139	-1.211824	63.690836	-28.715012	-13.765684	-100.733968	39.873049	12.441628	0.000000	66.859967	-33.582867	-6.652079	-100.755129	40.814499	19.562561	0.000000	-10.407083	2.180558	1.349841
5.455000	8.359477	2.490686	-180.822017	0.272177	0.582268	-1.211838	63.809081	-28.657208	-13.515960	-100.811149	40.223099	13.268503	0.000000	67.038911	-33.667073	-6.597046	-100.907399	40.808053	19.475902	0.000000	-10.372440	2.220729	1.446054
5.460000	8.291631	2.473898	-180.799679	0.272130	0.581532	-1.211868	63.889755	-28.748885	-13.671986	-101.083193	39.976555	12.378984	0.000000	67.072118	-33.695686	-6.546768	-101.092060	40.879516	19.563201	0.000000	-10.468333	2.203891	1.428697
5.465000	8.342249	2.461688	-180.767289	0.272230	0.580749	-1.211857	63.992697	-28.765345	-13.399122	-101.128537	40.336581	13.320312	0.000000	67.229677	-33.684221	-6.518810	-101.187435	40.923803	19.577249	0.000000	-10.441693	2.214603	1.379371
5.470000	8.285198	2.427821	-180.725809	0.272201	0.580091	-1.211931	64.062669	-28.873976	-13.551305	-101.364570	40.109904	12.484267	0.000000	67.251540	-33.695588	-6.496687	-101.378828	40.948744	19.674015	0.000000	-10.525645	2.187947	1.310832
5.475000	8.316341	2.436029	-180.710603	0.272317	0.579403	-1.211965	64.139367	-28.857959	-13.302665	-101.403662	40.447597	13.358460	0.000000	67.403024	-33.708249	-6.426772	-101.497660	40.967405	19.690764	0.000000	-10.509679	2.190006	1.367572
5.480000	8.268785	2.422286	-180.695793	0.272311	0.578783	-1.211996	64.229540	-28.933057	-13.465493	-101.643091	40.183916	12.477321	0.000000	67.440989	-33.734037	-6.399599	-101.629771	41.009878	19.710223	0.000000	-10.583022	2.180820	1.347966
5.485000	8.292523	2.420234	-180.716292	0.272388	0.578118	-1.211983	64.314537	-28.904165	-13.183557	-101.683215	40.547643	13.378493	0.000000	67.560420	-33.765907	-6.356185	-101.760658	41.035775	19.699695	0.000000	-10.570737	2.194885	1.409782
5.490000	8.249870	2.413846	-180.711969	0.272415	0.577549	-1.212026	64.401607	-28.964906	-13.366610	-101.909830	40.244035	12.427578	0.000000	67.608904	-33.794349	-6.305535	-101.896776	41.065562	19.751131	0.000000	-10.647954	2.202345	1.385381
5.495000	8.279377	2.389844	-180.694792	0.272538	0.576912	-1.212027	64.479794	-28.969478	-13.075110	-101.925091	40.635231	13.374249	0.000000	67.719521	-33.769405	-6.291048	-101.977212	41.061044	19.695181	0.000000	-10.644042	2.202349	1.344309
5.500000	8.229222	2.382885	-180.661409	0.272509	0.576429	-1.212059	64.533531	-29.054714	-13.270983	-102.133469	40.334135	12.456774	0.000000	67.735547	-33.768121	-6.262811	-102.025697	41.159100	19.696767	0.000000	-10.701265	2.197283	1.354707
5.505000	8.257006	2.397473	-180.651879	0.272613	0.575893	-1.212087	64.579836	-29.016681	-13.030129	-102.132101	40.710058	13.343355	0.000000	67.869218	-33.775871	-6.185199	-102.165135	41.122889	19.684106	0.000000	-10.702860	2.222063	1.357373
5.510000	8.209163	2.378017	-180.634312	0.272645	0.575453	-1.212126	64.656533	-29.085459	-13.200567	-102.342088	40.405503	12.424999	0.000000	67.881139	-33.770852	-6.159686	-102.255846	41.173059	19.715868	0.000000	-10.773520	2.200345	1.356112
5.515000	8.220323	2.389797	-180.618294	0.272734	0.574974	-1.212199	64.679365	-29.056413	-12.964495	-102.341077	40.793859	13.311857	0.000000	67.983956	-33.778735	-6.105896	-102.298622	41.230418	19.659887	0.000000	-10.774404	2.212939	1.367291
5.520000	8.191059	2.380344	-180.601804	0.272791	0.574586	-1.212248	64.755576	-29.117752	-13.155667	-102.521218	40.529561	12.453758	0.000000	68.010870	-33.774082	-6.077331	-102.366799	41.259851	19.666583	0.000000	-10.829105	2.209183	1.354686
5.525000	8.194313	2.366039	-180.598832	0.272904	0.574115	-1.212293	64.779054	-29.095985	-12.889654	-102.510042	40.838704	13.314460	0.000000	68.077710	-33.773199	-6.052110	-102.446176	41.281917	19.670538	0.000000	-10.853675	2.204326	1.354839
5.530000	8.168185	2.345109	-180.581760	0.272983	0.573724	-1.212348	64.872799	-29.157942	-13.060497	-102.697661	40.520237	12.377408	0.000000	68.106841	-33.763326	-6.031460	-102.519950	41.289916	19.667145	0.000000	-10.901227	2.196479	1.329078
5.535000	8.174714	2.372522	-180.587874	0.273082	0.573367	-1.212363	64.877156	-29.110649	-12.855064	-102.673339	40.887933	13.230296	0.000000	68.198829	-33.780920	-5.954220	-102.590548	41.296299	19.643594	0.000000	-10.916403	2.232548	1.373195
5.540000	8.166095	2.325934	-180.576377	0.273157	0.573013	-1.212233	65.006159	-29.211950	-12.994710	-102.852112	40.493008	12.441305	0.000000	68.404774	-33.703281	-5.437396	-102.563317	40.923155	20.366963	0.000000	-10.944321	2.209079	1.381072
5.545000	8.147640	2.316817	-180.573888	0.273269	0.572717	-1.212257	65.046453	-29.220647	-12.956809	-102.912681	40.496577	12.447794	0.000000	68.441055	-33.691490	-5.368221	-102.576364	40.908279	20.380988	0.000000	-10.991740	2.216181	1.386101
5.550000	8.148678	2.389457	-180.533693	0.273391	0.572371	-1.212498	65.034807	-29.196402	-13.037601	-102.967779	40.655374	12.385689	0.000000	68.375305	-33.764596	-5.807008	-102.761663	41.362634	19.671857	0.000000	-11.012629	2.284968	1.369783
5.555000	8.147874	2.363752	-180.477629	0.273505	0.572077	-1.212553	65.069073	-29.252370	-13.009571	-103.023750	40.646652	12.365390	0.000000	68.424499	-33.705654	-5.781780	-102.789432	41.374787	19.692658	0.000000	-11.040177	2.272734	1.300094
5.560000	8.140294	2.359007	-180.457884	0.273635	0.571856	-1.212659	65.103958	-29.264735	-13.001834	-103.075428	40.665906	12.340431	0.000000	68.465661	-33.689550	-5.746398	-102.818569	41.385729	19.692857	0.000000	-11.072682	2.258653	1.317577
5.565000	8.124836	2.356466	-180.460445	0.273701	0.571623	-1.212652	65.136395	-29.280689	-12.988565	-103.138047	40.674928	12.332164	0.000000	68.495953	-33.701324	-5.727646	-102.871972	41.393781	19.686693	0.000000	-11.108497	2.266151	1.334048
5.570000	8.156450	2.363664	-180.490791	0.273857	0.571318	-1.212760	65.230842	-29.243208	-12.970369	-103.196274	40.683443	12.262826	0.000000	68.583609	-33.734249	-5.689520	-102.932349	41.413788	19.676264	0.000000	-11.095133	2.276970	1.398227
5.575000	8.152342	2.358087	-180.484882	0.274006	0.571120	-1.212842	65.257566	-29.244981	-12.958078	-103.228239	40.681303	12.259524	0.000000	68.616467	-33.728022	-5.675295	-102.962537	41.409510	19.678234	0.000000	-11.131444	2.283440	1.393871
5.580000	8.174729	2.342690	-180.451470	0.274193	0.570906	-1.212942	65.317623	-29.265621	-12.938008	-103.253483	40.720484	12.289858	0.000000	68.679394	-33.687765	-5.650763	-102.962877	41.404706	19.695120	0.000000	-11.136041	2.279428	1.346847
5.585000	8.167269	2.336530	-180.441952	0.274310	0.570764	-1.213035	65.339149	-29.272297	-12.929462	-103.284654	40.716521	12.297629	0.000000	68.704280	-33.685306	-5.636102	-102.973543	41.404274	19.695802	0.000000	-11.161980	2.269656	1.359438
5.590000	8.170058	2.328907	-180.429510	0.274422	0.570643	-1.213081	65.371065	-29.288562	-12.923688	-103.318637	40.665683	12.296103	0.000000	68.739161	-33.667457	-5.615687	-102.987944	41.394050	19.693143	0.000000	-11.172450	2.253164	1.405734
5.595000	8.163128	2.326691	-180.428311	0.274522	0.570539	-1.213150	65.396328	-29.292927	-12.919023	-103.350525	40.667357	12.291605	0.000000	68.762560	-33.672946	-5.600357	-103.009953	41.386519	19.686542	0.000000	-11.199903	2.245157	1.417692
5.600000	8.199494	2.250561	-180.418818	0.274720	0.570371	-1.213179	65.522270	-29.338479	-12.823939	-103.383887	40.648705	12.280549	0.000000	68.972982	-33.571451	-5.123011	-102.887743	40.922177	20.328562	0.000000	-11.185597	2.165874	1.409930
5.605000	8.192545	2.243245	-180.413817	0.274867	0.570261	-1.213344	65.535891	-29.334596	-12.823308	-103.401160	40.648228	12.276343	0.000000	68.991366	-33.572465	-5.106596	-102.886233	40.920615	20.333158	0.000000	-11.215488	2.152467	1.407694
5.610000	8.188922	2.314787	-180.405207	0.275024	0.570154	-1.213628	65.503082	-29.265864	-12.909104	-103.411325	40.651714	12.211037	0.000000	68.888458	-33.663937	-5.532200	-103.010196	41.303662	19.642872	0.000000	-11.244734	2.209694	1.415745
